<svg id="Layer_1" enable-background="new 0 0 512 512" height="512" viewBox="0 0 512 512" width="512" xmlns="http://www.w3.org/2000/svg"><g><g><path d="m256 512c-68.38 0-132.667-26.629-181.02-74.98-48.351-48.353-74.98-112.64-74.98-181.02s26.629-132.667 74.98-181.02c48.353-48.351 112.64-74.98 181.02-74.98s132.667 26.629 181.02 74.98c48.351 48.353 74.98 112.64 74.98 181.02s-26.629 132.667-74.98 181.02c-48.353 48.351-112.64 74.98-181.02 74.98z" fill="#fbda35"/></g><path d="m437.02 437.02c48.351-48.353 74.98-112.64 74.98-181.02s-26.629-132.667-74.98-181.02c-48.353-48.351-112.64-74.98-181.02-74.98v512c68.38 0 132.667-26.629 181.02-74.98z" fill="#f7ba35"/><g><path d="m256 451.75c-107.937 0-195.75-87.813-195.75-195.75s87.813-195.75 195.75-195.75 195.75 87.813 195.75 195.75-87.813 195.75-195.75 195.75zm0-361.5c-91.395 0-165.75 74.355-165.75 165.75s74.355 165.75 165.75 165.75 165.75-74.355 165.75-165.75-74.355-165.75-165.75-165.75z" fill="#f7ba35"/></g><path d="m316.25 255.938c8.284 0 15-6.716 15-15s-6.716-15-15-15h-32.222l44.703-67.055c4.595-6.893 2.732-16.206-4.161-20.801-6.892-4.594-16.206-2.733-20.801 4.161l-47.769 71.653-47.769-71.654c-4.596-6.894-13.911-8.756-20.801-4.161-6.893 4.596-8.756 13.909-4.161 20.801l44.703 67.055h-32.222c-8.284 0-15 6.716-15 15s6.716 15 15 15h45.25v30.25h-45.25c-8.284 0-15 6.716-15 15s6.716 15 15 15h45.25v45.25c0 8.284 6.716 15 15 15s15-6.716 15-15v-45.25h45.25c8.284 0 15-6.716 15-15s-6.716-15-15-15h-45.25v-30.25h45.25z" fill="#f7ba35"/><g fill="#fc9602"><path d="m421.75 256c0 91.395-74.355 165.75-165.75 165.75v30c107.937 0 195.75-87.813 195.75-195.75s-87.813-195.75-195.75-195.75v30c91.395 0 165.75 74.355 165.75 165.75z"/><path d="m271 361.438v-45.25h45.25c8.284 0 15-6.716 15-15s-6.716-15-15-15h-45.25v-30.25h45.25c8.284 0 15-6.716 15-15s-6.716-15-15-15h-32.222l44.703-67.055c4.595-6.893 2.732-16.206-4.161-20.801-6.892-4.594-16.206-2.733-20.801 4.161l-47.769 71.653v162.542c8.284 0 15-6.716 15-15z"/></g></g></svg>